<svg data-v-d3f97b9e="" xmlns="http://www.w3.org/2000/svg" viewBox="0 0 538 90"><!----><!----><!----><g data-v-d3f97b9e="" id="abfad89a-bc89-4461-a6cc-544728f88a6c" fill="black" transform="matrix(4.181184557840047,0,0,4.181184557840047,149.62748967122155,7.975610378960276)"><path d="M2.63 2.80L0.91 12.60L6.72 12.60L7.03 10.85L3.23 10.85L4.65 2.80ZM9.14 9.87L14.24 9.87C14.37 9.49 14.43 9.05 14.43 8.57C14.43 7.76 14.14 7.09 13.57 6.58C12.99 6.07 12.26 5.81 11.40 5.81C10.19 5.81 9.20 6.22 8.41 7.03C7.63 7.84 7.24 8.85 7.24 10.05C7.24 10.89 7.52 11.57 8.08 12.10C8.64 12.62 9.42 12.88 10.42 12.88C11.30 12.88 12.02 12.70 12.57 12.33C13.12 11.96 13.60 11.46 14.01 10.82L12.31 10.42C11.86 11.08 11.27 11.41 10.54 11.41C10.12 11.41 9.78 11.28 9.53 11.03C9.27 10.77 9.14 10.40 9.14 9.91ZM12.50 8.48L9.44 8.48C9.59 8.10 9.85 7.79 10.21 7.56C10.56 7.33 10.92 7.21 11.28 7.21C12.08 7.21 12.48 7.63 12.50 8.48ZM21.24 6.16L21.03 7.38C20.84 6.91 20.55 6.54 20.15 6.28C19.76 6.01 19.31 5.88 18.80 5.88C17.84 5.88 16.96 6.25 16.17 6.99C15.38 7.72 14.98 8.66 14.98 9.80C14.98 10.75 15.24 11.50 15.77 12.05C16.30 12.60 16.99 12.88 17.84 12.88C18.27 12.88 18.71 12.76 19.14 12.51C19.58 12.26 19.96 11.92 20.29 11.48L20.09 12.60L21.98 12.60L23.13 6.16ZM16.93 9.76C16.93 9.05 17.14 8.50 17.57 8.13C18.00 7.75 18.52 7.56 19.12 7.56C19.59 7.56 19.97 7.67 20.26 7.89C20.55 8.11 20.69 8.45 20.69 8.92C20.69 9.66 20.46 10.22 20.01 10.61C19.55 11.00 19.04 11.20 18.49 11.20C18.03 11.20 17.65 11.07 17.36 10.81C17.07 10.56 16.93 10.21 16.93 9.76ZM23.09 13.09C23.06 13.95 23.37 14.65 24.02 15.20C24.67 15.75 25.50 16.03 26.52 16.03C28.97 16.03 30.41 14.84 30.83 12.46L31.93 6.16L30.04 6.16L29.83 7.35C29.65 6.89 29.36 6.53 28.97 6.27C28.57 6.01 28.13 5.88 27.62 5.88C26.53 5.88 25.62 6.23 24.89 6.94C24.16 7.65 23.80 8.65 23.80 9.94C23.80 10.87 24.06 11.58 24.58 12.07C25.09 12.56 25.79 12.81 26.66 12.81C27.09 12.81 27.53 12.69 27.97 12.45C28.41 12.20 28.79 11.87 29.12 11.44L28.94 12.46C28.83 13.09 28.56 13.56 28.13 13.87C27.70 14.19 27.21 14.35 26.67 14.35C26.13 14.35 25.71 14.23 25.42 14C25.13 13.77 24.99 13.46 25.00 13.09ZM25.75 9.76C25.75 9.05 25.96 8.50 26.39 8.13C26.82 7.75 27.34 7.56 27.94 7.56C28.41 7.56 28.79 7.67 29.08 7.89C29.37 8.11 29.51 8.45 29.51 8.92C29.51 9.66 29.29 10.21 28.83 10.58C28.38 10.95 27.87 11.13 27.31 11.13C26.84 11.13 26.46 11.01 26.17 10.77C25.89 10.54 25.75 10.20 25.75 9.76ZM36.92 11.65L36.75 12.60L38.64 12.60L39.77 6.16L37.88 6.16L37.17 10.19C37.07 10.59 36.87 10.90 36.57 11.11C36.27 11.32 35.92 11.42 35.53 11.42C35.18 11.42 34.93 11.32 34.80 11.12C34.67 10.91 34.65 10.57 34.75 10.08L35.43 6.16L33.54 6.16L32.77 10.50C32.64 11.26 32.74 11.84 33.07 12.26C33.39 12.68 33.89 12.89 34.57 12.89C35.54 12.89 36.32 12.48 36.92 11.65ZM42.18 9.87L47.28 9.87C47.41 9.49 47.47 9.05 47.47 8.57C47.47 7.76 47.18 7.09 46.61 6.58C46.03 6.07 45.30 5.81 44.44 5.81C43.23 5.81 42.24 6.22 41.45 7.03C40.67 7.84 40.28 8.85 40.28 10.05C40.28 10.89 40.56 11.57 41.12 12.10C41.68 12.62 42.46 12.88 43.46 12.88C44.34 12.88 45.06 12.70 45.61 12.33C46.16 11.96 46.64 11.46 47.05 10.82L45.35 10.42C44.90 11.08 44.31 11.41 43.58 11.41C43.16 11.41 42.82 11.28 42.57 11.03C42.31 10.77 42.18 10.40 42.18 9.91ZM45.54 8.48L42.48 8.48C42.63 8.10 42.89 7.79 43.25 7.56C43.60 7.33 43.96 7.21 44.32 7.21C45.12 7.21 45.52 7.63 45.54 8.48ZM52.79 4.55L55.31 4.55L53.90 12.60L55.90 12.60L57.32 4.55L59.79 4.55L60.10 2.80L53.10 2.80ZM64.50 6.16L64.29 7.38C64.10 6.91 63.81 6.54 63.41 6.28C63.02 6.01 62.57 5.88 62.06 5.88C61.10 5.88 60.22 6.25 59.43 6.99C58.64 7.72 58.24 8.66 58.24 9.80C58.24 10.75 58.50 11.50 59.03 12.05C59.56 12.60 60.25 12.88 61.10 12.88C61.53 12.88 61.97 12.76 62.41 12.51C62.84 12.26 63.22 11.92 63.55 11.48L63.35 12.60L65.24 12.60L66.39 6.16ZM60.19 9.76C60.19 9.05 60.40 8.50 60.83 8.13C61.26 7.75 61.78 7.56 62.38 7.56C62.85 7.56 63.23 7.67 63.52 7.89C63.81 8.11 63.95 8.45 63.95 8.92C63.95 9.66 63.72 10.22 63.27 10.61C62.81 11.00 62.30 11.20 61.75 11.20C61.29 11.20 60.91 11.07 60.62 10.81C60.33 10.56 60.19 10.21 60.19 9.76ZM73.04 9.00C73.04 9.71 72.82 10.25 72.39 10.63C71.96 11.01 71.45 11.20 70.84 11.20C70.37 11.20 70.00 11.09 69.71 10.87C69.42 10.65 69.27 10.31 69.27 9.84C69.27 9.76 69.28 9.63 69.30 9.46L69.33 9.27C69.45 8.72 69.72 8.29 70.15 8.00C70.57 7.71 71.01 7.56 71.47 7.56C71.94 7.56 72.31 7.69 72.60 7.94C72.89 8.20 73.04 8.55 73.04 9.00ZM68.95 11.41C69.14 11.87 69.43 12.23 69.82 12.49C70.21 12.75 70.66 12.88 71.16 12.88C72.25 12.88 73.17 12.53 73.90 11.82C74.63 11.11 75.00 10.11 75.00 8.82C75.00 7.88 74.73 7.15 74.21 6.64C73.68 6.13 72.99 5.88 72.13 5.88C71.69 5.88 71.25 6.00 70.82 6.25C70.39 6.50 70.00 6.84 69.68 7.28L70.67 1.68L68.78 1.68L66.85 12.60L68.74 12.60ZM77.53 1.68L75.60 12.60L77.49 12.60L79.42 1.68ZM81.10 9.87L86.20 9.87C86.33 9.49 86.39 9.05 86.39 8.57C86.39 7.76 86.10 7.09 85.53 6.58C84.95 6.07 84.22 5.81 83.36 5.81C82.15 5.81 81.16 6.22 80.37 7.03C79.59 7.84 79.20 8.85 79.20 10.05C79.20 10.89 79.48 11.57 80.04 12.10C80.60 12.62 81.38 12.88 82.38 12.88C83.26 12.88 83.98 12.70 84.53 12.33C85.08 11.96 85.56 11.46 85.97 10.82L84.27 10.42C83.82 11.08 83.23 11.41 82.50 11.41C82.08 11.41 81.74 11.28 81.49 11.03C81.23 10.77 81.10 10.40 81.10 9.91ZM84.46 8.48L81.40 8.48C81.55 8.10 81.81 7.79 82.17 7.56C82.52 7.33 82.88 7.21 83.24 7.21C84.04 7.21 84.44 7.63 84.46 8.48ZM88.40 10.35L86.69 10.88C86.70 11.43 86.97 11.91 87.49 12.33C88.02 12.74 88.70 12.95 89.54 12.95C90.40 12.95 91.10 12.74 91.64 12.33C92.19 11.91 92.46 11.30 92.46 10.49C92.46 9.94 92.26 9.50 91.87 9.18C91.67 9.03 91.27 8.82 90.65 8.58C90.40 8.48 90.23 8.41 90.14 8.37C90.05 8.33 89.95 8.28 89.82 8.21C89.70 8.14 89.63 8.08 89.59 8.02C89.56 7.95 89.54 7.88 89.54 7.80C89.54 7.63 89.61 7.49 89.75 7.38C89.89 7.28 90.06 7.22 90.26 7.22C90.69 7.22 91.03 7.50 91.29 8.06L92.85 7.56C92.74 7.05 92.46 6.63 92.01 6.30C91.56 5.97 90.99 5.81 90.29 5.81C89.47 5.81 88.82 6.01 88.33 6.41C87.84 6.81 87.60 7.32 87.60 7.94C87.60 8.50 87.74 8.92 88.03 9.20C88.32 9.48 88.71 9.70 89.19 9.86C90.05 10.15 90.48 10.43 90.48 10.71C90.48 10.92 90.39 11.07 90.21 11.18C90.03 11.29 89.81 11.34 89.54 11.34C89.21 11.34 88.94 11.25 88.74 11.08C88.54 10.91 88.42 10.66 88.40 10.35Z"></path></g><!----><g data-v-d3f97b9e="" id="9d06ff30-d2ec-4a6b-b221-b5562921f117" transform="matrix(1.3343267607934284,0,0,1.3343267607934284,0.28373589565045165,-21.440916021689915)" stroke="none" fill="black"><path d="M76 28.502c2.701-3.016 2.447-7.648-.578-10.36a7.329 7.329 0 0 0-10.35.575 7.33 7.33 0 0 0 .574 10.351A7.328 7.328 0 0 0 76 28.502zM1.869 32.618a7.324 7.324 0 0 0 .575 10.348 7.32 7.32 0 0 0 10.353-.565c2.702-3.013 2.446-7.651-.577-10.36-3.016-2.698-7.656-2.442-10.351.577zM85.859 39.093a2.806 2.806 0 0 0-.351-.137l-15.772-5.138-17.457-4.832a2.825 2.825 0 0 0-.365-.092l-15.912-2.03-.798 4.27 15.657 3.198 10.85 3.447-9.356 13.901-15.248-5.007a3.892 3.892 0 0 0-1.121-.194l-21.146-.483-.177 7.754 20.572.467 14.279 4.69-7.686 4.78a3.877 3.877 0 0 0-1.495 1.715l-6.751 15.171 7.085 3.151 6.268-14.082 13.441-8.359-.024-.038a6.169 6.169 0 0 0 1.629-1.647l11.026-16.38c.373-.556.616-1.157.791-1.768l9.914 2.87 14.461 6.292 1.827-3.94-14.141-7.579z"></path></g><!----></svg>