<svg data-v-d3f97b9e="" xmlns="http://www.w3.org/2000/svg" viewBox="0 0 88.95491378412272 60"><!----><!----><!----><!----><g data-v-d3f97b9e="" id="0463d32a-2e01-4118-9b15-30a3d844870f" transform="matrix(0.8895511738622855,0,0,0.8895511738622855,-0.00020938173771156698,-14.476774825006814)" stroke="none" fill="white"><path d="M76 28.502c2.701-3.016 2.447-7.648-.578-10.36a7.329 7.329 0 0 0-10.35.575 7.33 7.33 0 0 0 .574 10.351A7.328 7.328 0 0 0 76 28.502zM1.869 32.618a7.324 7.324 0 0 0 .575 10.348 7.32 7.32 0 0 0 10.353-.565c2.702-3.013 2.446-7.651-.577-10.36-3.016-2.698-7.656-2.442-10.351.577zM85.859 39.093a2.806 2.806 0 0 0-.351-.137l-15.772-5.138-17.457-4.832a2.825 2.825 0 0 0-.365-.092l-15.912-2.03-.798 4.27 15.657 3.198 10.85 3.447-9.356 13.901-15.248-5.007a3.892 3.892 0 0 0-1.121-.194l-21.146-.483-.177 7.754 20.572.467 14.279 4.69-7.686 4.78a3.877 3.877 0 0 0-1.495 1.715l-6.751 15.171 7.085 3.151 6.268-14.082 13.441-8.359-.024-.038a6.169 6.169 0 0 0 1.629-1.647l11.026-16.38c.373-.556.616-1.157.791-1.768l9.914 2.87 14.461 6.292 1.827-3.94-14.141-7.579z"></path></g><!----></svg>