<svg data-v-29081953="" xmlns="http://www.w3.org/2000/svg" viewBox="0 0 300 300"><!----><defs data-v-29081953=""><!----></defs><rect data-v-29081953="" fill="#FDF7EC" x="0" y="0" width="300px" height="300px" class="logo-background-square"></rect><!----><defs data-v-29081953=""><linearGradient data-v-29081953="" gradientTransform="rotate(25)" id="48b500d2-8da9-4bdd-a44e-4d957f4b7e1d" x1="0%" y1="0%" x2="100%" y2="0%"><stop data-v-29081953="" offset="0%" stop-color="#E56500" stop-opacity="1"></stop><stop data-v-29081953="" offset="100%" stop-color="#EBC51D" stop-opacity="1"></stop></linearGradient></defs><g data-v-29081953="" id="7600ffc8-dd48-47e6-8a8b-607f297de9e4" fill="url(#48b500d2-8da9-4bdd-a44e-4d957f4b7e1d)" stroke="none" transform="matrix(2.2000050354119156,0,0,2.2000050354119156,39.99948168623199,40.00168686299179)"><path d="M76 28.502c2.701-3.016 2.447-7.648-.578-10.36a7.329 7.329 0 0 0-10.35.575 7.33 7.33 0 0 0 .574 10.351A7.328 7.328 0 0 0 76 28.502zM1.869 32.618a7.324 7.324 0 0 0 .575 10.348 7.32 7.32 0 0 0 10.353-.565c2.702-3.013 2.446-7.651-.577-10.36-3.016-2.698-7.656-2.442-10.351.577zM85.859 39.093a2.806 2.806 0 0 0-.351-.137l-15.772-5.138-17.457-4.832a2.825 2.825 0 0 0-.365-.092l-15.912-2.03-.798 4.27 15.657 3.198 10.85 3.447-9.356 13.901-15.248-5.007a3.892 3.892 0 0 0-1.121-.194l-21.146-.483-.177 7.754 20.572.467 14.279 4.69-7.686 4.78a3.877 3.877 0 0 0-1.495 1.715l-6.751 15.171 7.085 3.151 6.268-14.082 13.441-8.359-.024-.038a6.169 6.169 0 0 0 1.629-1.647l11.026-16.38c.373-.556.616-1.157.791-1.768l9.914 2.87 14.461 6.292 1.827-3.94-14.141-7.579z"></path></g><!----></svg>